<svg width="10" height="10" viewBox="0 0 10 10" fill="none" xmlns="http://www.w3.org/2000/svg">
<g clip-path="url(#clip0_607_1110)">
<path d="M4.69739 1.98237C4.67122 1.95733 4.6364 1.94336 4.60019 1.94336C4.56397 1.94336 4.52915 1.95733 4.50298 1.98237L1.26685 5.07383C1.2531 5.08698 1.24217 5.10278 1.23471 5.12027C1.22724 5.13777 1.22341 5.15659 1.22343 5.17561L1.2229 8.07706C1.2229 8.22624 1.28216 8.36931 1.38765 8.4748C1.49314 8.58029 1.63622 8.63956 1.7854 8.63956H3.47466C3.54925 8.63956 3.62079 8.60993 3.67353 8.55718C3.72628 8.50444 3.75591 8.4329 3.75591 8.35831V5.96768C3.75591 5.93038 3.77073 5.89462 3.7971 5.86824C3.82347 5.84187 3.85924 5.82706 3.89653 5.82706H5.30279C5.34008 5.82706 5.37585 5.84187 5.40222 5.86824C5.42859 5.89462 5.44341 5.93038 5.44341 5.96768V8.35831C5.44341 8.4329 5.47304 8.50444 5.52579 8.55718C5.57853 8.60993 5.65007 8.63956 5.72466 8.63956H7.41322C7.5624 8.63956 7.70547 8.58029 7.81096 8.4748C7.91645 8.36931 7.97572 8.22624 7.97572 8.07706V5.17561C7.97574 5.15659 7.9719 5.13777 7.96444 5.12027C7.95698 5.10278 7.94604 5.08698 7.9323 5.07383L4.69739 1.98237Z" fill="#545E44"/>
<path d="M8.72939 4.49287L7.41454 3.23498V1.32617C7.41454 1.25158 7.38491 1.18004 7.33216 1.1273C7.27942 1.07455 7.20788 1.04492 7.13329 1.04492H6.28954C6.21495 1.04492 6.14341 1.07455 6.09067 1.1273C6.03792 1.18004 6.00829 1.25158 6.00829 1.32617V1.88867L4.99016 0.915195C4.89489 0.818867 4.75321 0.763672 4.60011 0.763672C4.44753 0.763672 4.3062 0.818867 4.21093 0.915371L0.472057 4.49252C0.362722 4.59799 0.349011 4.77149 0.448503 4.88574C0.473487 4.91458 0.504078 4.93804 0.538415 4.95468C0.572751 4.97132 0.610115 4.9808 0.648233 4.98255C0.68635 4.98429 0.724423 4.97826 0.760136 4.96482C0.795848 4.95138 0.828452 4.93082 0.855964 4.90438L4.50343 1.41898C4.5296 1.39395 4.56442 1.37998 4.60063 1.37998C4.63685 1.37998 4.67167 1.39395 4.69784 1.41898L8.34565 4.90438C8.39939 4.95591 8.47136 4.98403 8.5458 4.98258C8.62023 4.98113 8.69106 4.95023 8.74274 4.89664C8.85067 4.78485 8.84171 4.60027 8.72939 4.49287Z" fill="#293737"/>
</g>
<defs>
<clipPath id="clip0_607_1110">
<rect width="9.00001" height="9.00001" fill="white" transform="translate(0.0996094 0.203125)"/>
</clipPath>
</defs>
</svg>
