<svg width="10" height="10" viewBox="0 0 10 10" fill="none" xmlns="http://www.w3.org/2000/svg">
<g clip-path="url(#clip0_607_1084)">
<path d="M4.69764 2.3808C4.67147 2.35577 4.63665 2.3418 4.60043 2.3418C4.56422 2.3418 4.5294 2.35577 4.50322 2.3808L1.26709 5.47227C1.25335 5.48542 1.24241 5.50122 1.23495 5.51871C1.22749 5.5362 1.22365 5.55503 1.22367 5.57405L1.22314 8.47549C1.22314 8.62468 1.28241 8.76775 1.3879 8.87324C1.49339 8.97873 1.63646 9.03799 1.78564 9.03799H3.4749C3.5495 9.03799 3.62103 9.00836 3.67378 8.95562C3.72652 8.90287 3.75615 8.83134 3.75615 8.75674V6.36612C3.75615 6.32882 3.77097 6.29305 3.79734 6.26668C3.82371 6.24031 3.85948 6.22549 3.89678 6.22549H5.30303C5.34033 6.22549 5.37609 6.24031 5.40247 6.26668C5.42884 6.29305 5.44365 6.32882 5.44365 6.36612V8.75674C5.44365 8.83134 5.47329 8.90287 5.52603 8.95562C5.57878 9.00836 5.65031 9.03799 5.7249 9.03799H7.41346C7.56264 9.03799 7.70572 8.97873 7.81121 8.87324C7.9167 8.76775 7.97596 8.62468 7.97596 8.47549V5.57405C7.97598 5.55503 7.97215 5.5362 7.96468 5.51871C7.95722 5.50122 7.94629 5.48542 7.93254 5.47227L4.69764 2.3808Z" fill="black"/>
<path d="M8.72963 4.89131L7.41478 3.63342V1.72461C7.41478 1.65002 7.38515 1.57848 7.33241 1.52574C7.27966 1.47299 7.20813 1.44336 7.13353 1.44336H6.28978C6.21519 1.44336 6.14366 1.47299 6.09091 1.52574C6.03817 1.57848 6.00853 1.65002 6.00853 1.72461V2.28711L4.99041 1.31363C4.89514 1.2173 4.75346 1.16211 4.60035 1.16211C4.44777 1.16211 4.30644 1.2173 4.21117 1.31381L0.472302 4.89096C0.362966 4.99643 0.349255 5.16992 0.448747 5.28418C0.473731 5.31302 0.504322 5.33648 0.538659 5.35312C0.572996 5.36976 0.61036 5.37924 0.648477 5.38099C0.686594 5.38273 0.724667 5.3767 0.76038 5.36326C0.796092 5.34982 0.828696 5.32925 0.856208 5.30281L4.50367 1.81742C4.52984 1.79239 4.56466 1.77842 4.60088 1.77842C4.63709 1.77842 4.67191 1.79239 4.69808 1.81742L8.3459 5.30281C8.39963 5.35434 8.47161 5.38247 8.54604 5.38102C8.62048 5.37957 8.6913 5.34866 8.74299 5.29508C8.85092 5.18328 8.84195 4.99871 8.72963 4.89131Z" fill="black"/>
</g>
<defs>
<clipPath id="clip0_607_1084">
<rect width="9.00001" height="9.00001" fill="white" transform="translate(0.0998535 0.597656)"/>
</clipPath>
</defs>
</svg>
