<svg width="10" height="10" viewBox="0 0 10 10" fill="none" xmlns="http://www.w3.org/2000/svg">
<g clip-path="url(#clip0_607_1145)">
<path d="M5.09754 1.88276C5.07137 1.85772 5.03655 1.84375 5.00033 1.84375C4.96412 1.84375 4.9293 1.85772 4.90313 1.88276L1.66699 4.97422C1.65325 4.98737 1.64231 5.00317 1.63485 5.02066C1.62739 5.03816 1.62355 5.05698 1.62357 5.076L1.62305 7.97745C1.62305 8.12663 1.68231 8.26971 1.7878 8.37519C1.89329 8.48068 2.03636 8.53995 2.18555 8.53995H3.87481C3.9494 8.53995 4.02093 8.51032 4.07368 8.45757C4.12642 8.40483 4.15606 8.33329 4.15606 8.2587V5.86807C4.15606 5.83078 4.17087 5.79501 4.19724 5.76863C4.22362 5.74226 4.25939 5.72745 4.29668 5.72745H5.70293C5.74023 5.72745 5.776 5.74226 5.80237 5.76863C5.82874 5.79501 5.84356 5.83078 5.84356 5.86807V8.2587C5.84356 8.33329 5.87319 8.40483 5.92593 8.45757C5.97868 8.51032 6.05021 8.53995 6.12481 8.53995H7.81336C7.96255 8.53995 8.10562 8.48068 8.21111 8.37519C8.3166 8.26971 8.37586 8.12663 8.37586 7.97745V5.076C8.37588 5.05698 8.37205 5.03816 8.36459 5.02066C8.35712 5.00317 8.34619 4.98737 8.33245 4.97422L5.09754 1.88276Z" fill="#545E44"/>
<path d="M9.12904 4.39522L7.8142 3.13733V1.22852C7.8142 1.15392 7.78457 1.08239 7.73182 1.02964C7.67908 0.976897 7.60754 0.947266 7.53295 0.947266H6.6892C6.61461 0.947266 6.54307 0.976897 6.49032 1.02964C6.43758 1.08239 6.40795 1.15392 6.40795 1.22852V1.79102L5.38982 0.817539C5.29455 0.721211 5.15287 0.666016 4.99976 0.666016C4.84719 0.666016 4.70586 0.721211 4.61058 0.817715L0.871716 4.39486C0.76238 4.50033 0.748669 4.67383 0.848161 4.78809C0.873145 4.81693 0.903736 4.84038 0.938073 4.85702C0.97241 4.87367 1.00977 4.88315 1.04789 4.88489C1.08601 4.88663 1.12408 4.8806 1.15979 4.86716C1.19551 4.85373 1.22811 4.83316 1.25562 4.80672L4.90308 1.32133C4.92926 1.29629 4.96408 1.28232 5.00029 1.28232C5.03651 1.28232 5.07133 1.29629 5.0975 1.32133L8.74531 4.80672C8.79905 4.85825 8.87102 4.88637 8.94546 4.88492C9.01989 4.88347 9.09072 4.85257 9.1424 4.79899C9.25033 4.68719 9.24137 4.50262 9.12904 4.39522Z" fill="#293737"/>
</g>
<defs>
<clipPath id="clip0_607_1145">
<rect width="9.00001" height="9.00001" fill="white" transform="translate(0.499756 0.103516)"/>
</clipPath>
</defs>
</svg>
