<svg width="9" height="10" viewBox="0 0 9 10" fill="none" xmlns="http://www.w3.org/2000/svg">
<g clip-path="url(#clip0_607_1087)">
<path d="M4.59779 2.58198C4.57161 2.55694 4.53679 2.54297 4.50058 2.54297C4.46436 2.54297 4.42954 2.55694 4.40337 2.58198L1.16724 5.67344C1.15349 5.68659 1.14256 5.70239 1.1351 5.71988C1.12763 5.73737 1.1238 5.7562 1.12382 5.77522L1.12329 8.67667C1.12329 8.82585 1.18255 8.96892 1.28804 9.07441C1.39353 9.1799 1.53661 9.23917 1.68579 9.23917H3.37505C3.44964 9.23917 3.52118 9.20954 3.57392 9.15679C3.62667 9.10405 3.6563 9.03251 3.6563 8.95792V6.56729C3.6563 6.52999 3.67112 6.49423 3.69749 6.46785C3.72386 6.44148 3.75963 6.42667 3.79693 6.42667H5.20318C5.24047 6.42667 5.27624 6.44148 5.30261 6.46785C5.32899 6.49423 5.3438 6.52999 5.3438 6.56729V8.95792C5.3438 9.03251 5.37343 9.10405 5.42618 9.15679C5.47892 9.20954 5.55046 9.23917 5.62505 9.23917H7.31361C7.46279 9.23917 7.60587 9.1799 7.71135 9.07441C7.81684 8.96892 7.87611 8.82585 7.87611 8.67667V5.77522C7.87613 5.7562 7.87229 5.73737 7.86483 5.71988C7.85737 5.70239 7.84643 5.68659 7.83269 5.67344L4.59779 2.58198Z" fill="black"/>
<path d="M8.62953 5.09248L7.31469 3.83459V1.92578C7.31469 1.85119 7.28506 1.77965 7.23231 1.72691C7.17957 1.67416 7.10803 1.64453 7.03344 1.64453H6.18969C6.11509 1.64453 6.04356 1.67416 5.99081 1.72691C5.93807 1.77965 5.90844 1.85119 5.90844 1.92578V2.48828L4.89031 1.5148C4.79504 1.41848 4.65336 1.36328 4.50025 1.36328C4.34767 1.36328 4.20635 1.41848 4.11107 1.51498L0.372204 5.09213C0.262868 5.1976 0.249157 5.3711 0.348649 5.48535C0.373633 5.51419 0.404224 5.53765 0.438561 5.55429C0.472898 5.57093 0.510262 5.58041 0.548379 5.58216C0.586496 5.5839 0.62457 5.57787 0.660282 5.56443C0.695994 5.55099 0.728598 5.53043 0.75611 5.50399L4.40357 2.01859C4.42974 1.99356 4.46456 1.97959 4.50078 1.97959C4.537 1.97959 4.57182 1.99356 4.59799 2.01859L8.2458 5.50399C8.29954 5.55552 8.37151 5.58364 8.44594 5.58219C8.52038 5.58074 8.5912 5.54984 8.64289 5.49625C8.75082 5.38445 8.74186 5.19988 8.62953 5.09248Z" fill="black"/>
</g>
<defs>
<clipPath id="clip0_607_1087">
<rect width="9.00001" height="9.00001" fill="white" transform="translate(0 0.800781)"/>
</clipPath>
</defs>
</svg>
