<svg width="10" height="9" viewBox="0 0 10 9" fill="none" xmlns="http://www.w3.org/2000/svg">
<g clip-path="url(#clip0_607_1090)">
<path d="M5.39783 1.77924C5.37166 1.75421 5.33684 1.74023 5.30063 1.74023C5.26441 1.74023 5.22959 1.75421 5.20342 1.77924L1.96729 4.87071C1.95354 4.88385 1.94261 4.89965 1.93515 4.91715C1.92768 4.93464 1.92385 4.95347 1.92387 4.97249L1.92334 7.87393C1.92334 8.02312 1.9826 8.16619 2.08809 8.27168C2.19358 8.37717 2.33666 8.43643 2.48584 8.43643H4.1751C4.24969 8.43643 4.32123 8.4068 4.37397 8.35406C4.42672 8.30131 4.45635 8.22977 4.45635 8.15518V5.76456C4.45635 5.72726 4.47116 5.69149 4.49754 5.66512C4.52391 5.63875 4.55968 5.62393 4.59697 5.62393H6.00322C6.04052 5.62393 6.07629 5.63875 6.10266 5.66512C6.12903 5.69149 6.14385 5.72726 6.14385 5.76456V8.15518C6.14385 8.22977 6.17348 8.30131 6.22623 8.35406C6.27897 8.4068 6.35051 8.43643 6.4251 8.43643H8.11366C8.26284 8.43643 8.40591 8.37717 8.5114 8.27168C8.61689 8.16619 8.67616 8.02312 8.67616 7.87393V4.97249C8.67618 4.95347 8.67234 4.93464 8.66488 4.91715C8.65742 4.89965 8.64648 4.88385 8.63274 4.87071L5.39783 1.77924Z" fill="black"/>
<path d="M9.42934 4.28975L8.11449 3.03186V1.12305C8.11449 1.04845 8.08486 0.976918 8.03212 0.924173C7.97937 0.871429 7.90783 0.841797 7.83324 0.841797H6.98949C6.9149 0.841797 6.84336 0.871429 6.79062 0.924173C6.73787 0.976918 6.70824 1.04845 6.70824 1.12305V1.68555L5.69012 0.71207C5.59484 0.615742 5.45316 0.560547 5.30006 0.560547C5.14748 0.560547 5.00615 0.615742 4.91088 0.712246L1.17201 4.2894C1.06267 4.39486 1.04896 4.56836 1.14845 4.68262C1.17344 4.71146 1.20403 4.73491 1.23837 4.75156C1.2727 4.7682 1.31007 4.77768 1.34818 4.77942C1.3863 4.78117 1.42437 4.77513 1.46009 4.7617C1.4958 4.74826 1.5284 4.72769 1.55592 4.70125L5.20338 1.21586C5.22955 1.19083 5.26437 1.17685 5.30058 1.17685C5.3368 1.17685 5.37162 1.19083 5.39779 1.21586L9.04561 4.70125C9.09934 4.75278 9.17131 4.7809 9.24575 4.77945C9.32018 4.778 9.39101 4.7471 9.4427 4.69352C9.55063 4.58172 9.54166 4.39715 9.42934 4.28975Z" fill="black"/>
</g>
<defs>
<clipPath id="clip0_607_1090">
<rect width="9.00001" height="9.00001" fill="white" transform="translate(0.800049)"/>
</clipPath>
</defs>
</svg>
