<svg width="9" height="10" viewBox="0 0 9 10" fill="none" xmlns="http://www.w3.org/2000/svg">
<g clip-path="url(#clip0_607_1081)">
<path d="M4.59754 2.17963C4.57137 2.1546 4.53655 2.14062 4.50033 2.14062C4.46412 2.14062 4.4293 2.1546 4.40313 2.17963L1.16699 5.2711C1.15325 5.28425 1.14231 5.30004 1.13485 5.31754C1.12739 5.33503 1.12355 5.35386 1.12357 5.37288L1.12305 8.27432C1.12305 8.42351 1.18231 8.56658 1.2878 8.67207C1.39329 8.77756 1.53636 8.83682 1.68555 8.83682H3.37481C3.4494 8.83682 3.52093 8.80719 3.57368 8.75445C3.62642 8.7017 3.65606 8.63016 3.65606 8.55557V6.16495C3.65606 6.12765 3.67087 6.09188 3.69724 6.06551C3.72362 6.03914 3.75939 6.02432 3.79668 6.02432H5.20293C5.24023 6.02432 5.276 6.03914 5.30237 6.06551C5.32874 6.09188 5.34356 6.12765 5.34356 6.16495V8.55557C5.34356 8.63016 5.37319 8.7017 5.42593 8.75445C5.47868 8.80719 5.55021 8.83682 5.62481 8.83682H7.31336C7.46255 8.83682 7.60562 8.77756 7.71111 8.67207C7.8166 8.56658 7.87586 8.42351 7.87586 8.27432V5.37288C7.87588 5.35386 7.87205 5.33503 7.86459 5.31754C7.85712 5.30004 7.84619 5.28425 7.83245 5.2711L4.59754 2.17963Z" fill="black"/>
<path d="M8.62929 4.69014L7.31444 3.43225V1.52344C7.31444 1.44885 7.28481 1.37731 7.23207 1.32456C7.17932 1.27182 7.10778 1.24219 7.03319 1.24219H6.18944C6.11485 1.24219 6.04331 1.27182 5.99057 1.32456C5.93782 1.37731 5.90819 1.44885 5.90819 1.52344V2.08594L4.89007 1.11246C4.79479 1.01613 4.65311 0.960938 4.50001 0.960938C4.34743 0.960938 4.2061 1.01613 4.11083 1.11264L0.37196 4.68979C0.262624 4.79526 0.248913 4.96875 0.348405 5.08301C0.373389 5.11185 0.40398 5.1353 0.438317 5.15195C0.472654 5.16859 0.510018 5.17807 0.548135 5.17981C0.586252 5.18156 0.624326 5.17552 0.660038 5.16209C0.69575 5.14865 0.728354 5.12808 0.755866 5.10164L4.40333 1.61625C4.4295 1.59122 4.46432 1.57724 4.50054 1.57724C4.53675 1.57724 4.57157 1.59122 4.59774 1.61625L8.24556 5.10164C8.29929 5.15317 8.37126 5.18129 8.4457 5.17984C8.52014 5.1784 8.59096 5.14749 8.64265 5.09391C8.75058 4.98211 8.74161 4.79754 8.62929 4.69014Z" fill="black"/>
</g>
<defs>
<clipPath id="clip0_607_1081">
<rect width="9.00001" height="9.00001" fill="white" transform="translate(-0.000244141 0.400391)"/>
</clipPath>
</defs>
</svg>
