<svg width="10" height="10" viewBox="0 0 10 10" fill="none" xmlns="http://www.w3.org/2000/svg">
<g clip-path="url(#clip0_607_1120)">
<path d="M5.0973 2.18159C5.07113 2.15655 5.03631 2.14258 5.00009 2.14258C4.96387 2.14258 4.92905 2.15655 4.90288 2.18159L1.66675 5.27305C1.653 5.2862 1.64207 5.302 1.63461 5.31949C1.62715 5.33698 1.62331 5.35581 1.62333 5.37483L1.6228 8.27628C1.6228 8.42546 1.68207 8.56853 1.78756 8.67402C1.89304 8.77951 2.03612 8.83878 2.1853 8.83878H3.87456C3.94915 8.83878 4.02069 8.80914 4.07344 8.7564C4.12618 8.70366 4.15581 8.63212 4.15581 8.55753V6.1669C4.15581 6.1296 4.17063 6.09383 4.197 6.06746C4.22337 6.04109 4.25914 6.02627 4.29644 6.02627H5.70269C5.73998 6.02627 5.77575 6.04109 5.80212 6.06746C5.8285 6.09383 5.84331 6.1296 5.84331 6.1669V8.55753C5.84331 8.63212 5.87294 8.70366 5.92569 8.7564C5.97843 8.80914 6.04997 8.83878 6.12456 8.83878H7.81312C7.9623 8.83878 8.10538 8.77951 8.21087 8.67402C8.31636 8.56853 8.37562 8.42546 8.37562 8.27628V5.37483C8.37564 5.35581 8.3718 5.33698 8.36434 5.31949C8.35688 5.302 8.34594 5.2862 8.3322 5.27305L5.0973 2.18159Z" fill="#545E44"/>
<path d="M9.12855 4.69209L7.81371 3.4342V1.52539C7.81371 1.4508 7.78408 1.37926 7.73133 1.32652C7.67859 1.27377 7.60705 1.24414 7.53246 1.24414H6.68871C6.61412 1.24414 6.54258 1.27377 6.48984 1.32652C6.43709 1.37926 6.40746 1.4508 6.40746 1.52539V2.08789L5.38933 1.11441C5.29406 1.01809 5.15238 0.962891 4.99928 0.962891C4.8467 0.962891 4.70537 1.01809 4.6101 1.11459L0.871227 4.69174C0.761891 4.79721 0.74818 4.9707 0.847673 5.08496C0.872657 5.1138 0.903248 5.13726 0.937585 5.1539C0.971921 5.17054 1.00929 5.18002 1.0474 5.18177C1.08552 5.18351 1.12359 5.17748 1.15931 5.16404C1.19502 5.1506 1.22762 5.13004 1.25513 5.1036L4.9026 1.6182C4.92877 1.59317 4.96359 1.5792 4.9998 1.5792C5.03602 1.5792 5.07084 1.59317 5.09701 1.6182L8.74482 5.1036C8.79856 5.15513 8.87053 5.18325 8.94497 5.1818C9.0194 5.18035 9.09023 5.14944 9.14191 5.09586C9.24984 4.98406 9.24088 4.79949 9.12855 4.69209Z" fill="#293737"/>
</g>
<defs>
<clipPath id="clip0_607_1120">
<rect width="9.00001" height="9.00001" fill="white" transform="translate(0.499756 0.400391)"/>
</clipPath>
</defs>
</svg>
