<svg width="10" height="10" viewBox="0 0 10 10" fill="none" xmlns="http://www.w3.org/2000/svg">
<g clip-path="url(#clip0_607_1125)">
<path d="M4.99696 2.38276C4.97078 2.35772 4.93596 2.34375 4.89975 2.34375C4.86353 2.34375 4.82871 2.35772 4.80254 2.38276L1.56641 5.47422C1.55266 5.48737 1.54173 5.50317 1.53427 5.52066C1.5268 5.53816 1.52297 5.55698 1.52299 5.576L1.52246 8.47745C1.52246 8.62663 1.58172 8.76971 1.68721 8.87519C1.7927 8.98068 1.93578 9.03995 2.08496 9.03995H3.77422C3.84881 9.03995 3.92035 9.01032 3.97309 8.95757C4.02584 8.90483 4.05547 8.83329 4.05547 8.7587V6.36807C4.05547 6.33078 4.07029 6.29501 4.09666 6.26863C4.12303 6.24226 4.1588 6.22745 4.1961 6.22745H5.60235C5.63964 6.22745 5.67541 6.24226 5.70178 6.26863C5.72816 6.29501 5.74297 6.33078 5.74297 6.36807V8.7587C5.74297 8.83329 5.7726 8.90483 5.82535 8.95757C5.87809 9.01032 5.94963 9.03995 6.02422 9.03995H7.71278C7.86196 9.03995 8.00504 8.98068 8.11052 8.87519C8.21601 8.76971 8.27528 8.62663 8.27528 8.47745V5.576C8.2753 5.55698 8.27146 5.53816 8.264 5.52066C8.25654 5.50317 8.2456 5.48737 8.23186 5.47422L4.99696 2.38276Z" fill="#545E44"/>
<path d="M9.0287 4.89522L7.71386 3.63733V1.72852C7.71386 1.65392 7.68423 1.58239 7.63148 1.52964C7.57874 1.4769 7.5072 1.44727 7.43261 1.44727H6.58886C6.51426 1.44727 6.44273 1.4769 6.38998 1.52964C6.33724 1.58239 6.30761 1.65392 6.30761 1.72852V2.29102L5.28948 1.31754C5.19421 1.22121 5.05253 1.16602 4.89942 1.16602C4.74684 1.16602 4.60552 1.22121 4.51024 1.31771L0.771374 4.89486C0.662038 5.00033 0.648327 5.17383 0.747819 5.28809C0.772803 5.31693 0.803394 5.34038 0.837731 5.35702C0.872068 5.37367 0.909432 5.38315 0.947549 5.38489C0.985666 5.38663 1.02374 5.3806 1.05945 5.36716C1.09516 5.35373 1.12777 5.33316 1.15528 5.30672L4.80274 1.82133C4.82891 1.79629 4.86373 1.78232 4.89995 1.78232C4.93617 1.78232 4.97099 1.79629 4.99716 1.82133L8.64497 5.30672C8.6987 5.35825 8.77068 5.38637 8.84511 5.38492C8.91955 5.38347 8.99037 5.35257 9.04206 5.29899C9.14999 5.18719 9.14103 5.00262 9.0287 4.89522Z" fill="#293737"/>
</g>
<defs>
<clipPath id="clip0_607_1125">
<rect width="9.00001" height="9.00001" fill="white" transform="translate(0.399658 0.601562)"/>
</clipPath>
</defs>
</svg>
