<svg width="10" height="10" viewBox="0 0 10 10" fill="none" xmlns="http://www.w3.org/2000/svg">
<g clip-path="url(#clip0_607_1095)">
<path d="M5.09754 1.8769C5.07137 1.85186 5.03655 1.83789 5.00033 1.83789C4.96412 1.83789 4.9293 1.85186 4.90313 1.8769L1.66699 4.96836C1.65325 4.98151 1.64231 4.99731 1.63485 5.0148C1.62739 5.0323 1.62355 5.05112 1.62357 5.07014L1.62305 7.97159C1.62305 8.12077 1.68231 8.26385 1.7878 8.36934C1.89329 8.47482 2.03636 8.53409 2.18555 8.53409H3.87481C3.9494 8.53409 4.02093 8.50446 4.07368 8.45171C4.12642 8.39897 4.15606 8.32743 4.15606 8.25284V5.86221C4.15606 5.82492 4.17087 5.78915 4.19724 5.76277C4.22362 5.7364 4.25939 5.72159 4.29668 5.72159H5.70293C5.74023 5.72159 5.776 5.7364 5.80237 5.76277C5.82874 5.78915 5.84356 5.82492 5.84356 5.86221V8.25284C5.84356 8.32743 5.87319 8.39897 5.92593 8.45171C5.97868 8.50446 6.05021 8.53409 6.12481 8.53409H7.81336C7.96255 8.53409 8.10562 8.47482 8.21111 8.36934C8.3166 8.26385 8.37586 8.12077 8.37586 7.97159V5.07014C8.37588 5.05112 8.37205 5.0323 8.36459 5.0148C8.35712 4.99731 8.34619 4.98151 8.33245 4.96836L5.09754 1.8769Z" fill="#545E44"/>
<path d="M9.12904 4.38936L7.8142 3.13147V1.22266C7.8142 1.14806 7.78457 1.07653 7.73182 1.02378C7.67908 0.971038 7.60754 0.941406 7.53295 0.941406H6.6892C6.61461 0.941406 6.54307 0.971038 6.49032 1.02378C6.43758 1.07653 6.40795 1.14806 6.40795 1.22266V1.78516L5.38982 0.81168C5.29455 0.715352 5.15287 0.660156 4.99976 0.660156C4.84719 0.660156 4.70586 0.715352 4.61058 0.811856L0.871716 4.38901C0.76238 4.49447 0.748669 4.66797 0.848161 4.78223C0.873145 4.81107 0.903736 4.83452 0.938073 4.85117C0.97241 4.86781 1.00977 4.87729 1.04789 4.87903C1.08601 4.88078 1.12408 4.87474 1.15979 4.8613C1.19551 4.84787 1.22811 4.8273 1.25562 4.80086L4.90308 1.31547C4.92926 1.29043 4.96408 1.27646 5.00029 1.27646C5.03651 1.27646 5.07133 1.29043 5.0975 1.31547L8.74531 4.80086C8.79905 4.85239 8.87102 4.88051 8.94546 4.87906C9.01989 4.87761 9.09072 4.84671 9.1424 4.79313C9.25033 4.68133 9.24137 4.49676 9.12904 4.38936Z" fill="#293737"/>
</g>
<defs>
<clipPath id="clip0_607_1095">
<rect width="9.00001" height="9.00001" fill="white" transform="translate(0.499756 0.0976562)"/>
</clipPath>
</defs>
</svg>
