<svg width="9" height="10" viewBox="0 0 9 10" fill="none" xmlns="http://www.w3.org/2000/svg">
<g clip-path="url(#clip0_607_1115)">
<path d="M4.59754 2.48041C4.57137 2.45538 4.53655 2.44141 4.50033 2.44141C4.46412 2.44141 4.4293 2.45538 4.40313 2.48041L1.16699 5.57188C1.15325 5.58503 1.14231 5.60082 1.13485 5.61832C1.12739 5.63581 1.12355 5.65464 1.12357 5.67366L1.12305 8.5751C1.12305 8.72429 1.18231 8.86736 1.2878 8.97285C1.39329 9.07834 1.53636 9.1376 1.68555 9.1376H3.37481C3.4494 9.1376 3.52093 9.10797 3.57368 9.05523C3.62642 9.00248 3.65606 8.93095 3.65606 8.85635V6.46573C3.65606 6.42843 3.67087 6.39266 3.69724 6.36629C3.72362 6.33992 3.75939 6.3251 3.79668 6.3251H5.20293C5.24023 6.3251 5.276 6.33992 5.30237 6.36629C5.32874 6.39266 5.34356 6.42843 5.34356 6.46573V8.85635C5.34356 8.93095 5.37319 9.00248 5.42593 9.05523C5.47868 9.10797 5.55021 9.1376 5.62481 9.1376H7.31336C7.46255 9.1376 7.60562 9.07834 7.71111 8.97285C7.8166 8.86736 7.87586 8.72429 7.87586 8.5751V5.67366C7.87588 5.65464 7.87205 5.63581 7.86459 5.61832C7.85712 5.60082 7.84619 5.58503 7.83245 5.57188L4.59754 2.48041Z" fill="#545E44"/>
<path d="M8.62929 4.99287L7.31444 3.73498V1.82617C7.31444 1.75158 7.28481 1.68004 7.23207 1.6273C7.17932 1.57455 7.10778 1.54492 7.03319 1.54492H6.18944C6.11485 1.54492 6.04331 1.57455 5.99057 1.6273C5.93782 1.68004 5.90819 1.75158 5.90819 1.82617V2.38867L4.89007 1.4152C4.79479 1.31887 4.65311 1.26367 4.50001 1.26367C4.34743 1.26367 4.2061 1.31887 4.11083 1.41537L0.37196 4.99252C0.262624 5.09799 0.248913 5.27149 0.348405 5.38574C0.373389 5.41458 0.40398 5.43804 0.438317 5.45468C0.472654 5.47132 0.510018 5.4808 0.548135 5.48255C0.586252 5.48429 0.624326 5.47826 0.660038 5.46482C0.69575 5.45138 0.728354 5.43082 0.755866 5.40438L4.40333 1.91898C4.4295 1.89395 4.46432 1.87998 4.50054 1.87998C4.53675 1.87998 4.57157 1.89395 4.59774 1.91898L8.24556 5.40438C8.29929 5.45591 8.37126 5.48403 8.4457 5.48258C8.52014 5.48113 8.59096 5.45023 8.64265 5.39664C8.75058 5.28485 8.74161 5.10027 8.62929 4.99287Z" fill="#293737"/>
</g>
<defs>
<clipPath id="clip0_607_1115">
<rect width="9.00001" height="9.00001" fill="white" transform="translate(-0.000244141 0.699219)"/>
</clipPath>
</defs>
</svg>
