<svg width="9" height="10" viewBox="0 0 9 10" fill="none" xmlns="http://www.w3.org/2000/svg">
<g clip-path="url(#clip0_607_1105)">
<path d="M4.59754 2.18159C4.57137 2.15655 4.53655 2.14258 4.50033 2.14258C4.46412 2.14258 4.4293 2.15655 4.40313 2.18159L1.16699 5.27305C1.15325 5.2862 1.14231 5.302 1.13485 5.31949C1.12739 5.33698 1.12355 5.35581 1.12357 5.37483L1.12305 8.27628C1.12305 8.42546 1.18231 8.56853 1.2878 8.67402C1.39329 8.77951 1.53636 8.83878 1.68555 8.83878H3.37481C3.4494 8.83878 3.52093 8.80914 3.57368 8.7564C3.62642 8.70366 3.65606 8.63212 3.65606 8.55753V6.1669C3.65606 6.1296 3.67087 6.09383 3.69724 6.06746C3.72362 6.04109 3.75939 6.02627 3.79668 6.02627H5.20293C5.24023 6.02627 5.276 6.04109 5.30237 6.06746C5.32874 6.09383 5.34356 6.1296 5.34356 6.1669V8.55753C5.34356 8.63212 5.37319 8.70366 5.42593 8.7564C5.47868 8.80914 5.55021 8.83878 5.62481 8.83878H7.31336C7.46255 8.83878 7.60562 8.77951 7.71111 8.67402C7.8166 8.56853 7.87586 8.42546 7.87586 8.27628V5.37483C7.87588 5.35581 7.87205 5.33698 7.86459 5.31949C7.85712 5.302 7.84619 5.2862 7.83245 5.27305L4.59754 2.18159Z" fill="#545E44"/>
<path d="M8.62904 4.69209L7.3142 3.4342V1.52539C7.3142 1.4508 7.28457 1.37926 7.23182 1.32652C7.17908 1.27377 7.10754 1.24414 7.03295 1.24414H6.1892C6.11461 1.24414 6.04307 1.27377 5.99032 1.32652C5.93758 1.37926 5.90795 1.4508 5.90795 1.52539V2.08789L4.88982 1.11441C4.79455 1.01809 4.65287 0.962891 4.49976 0.962891C4.34719 0.962891 4.20586 1.01809 4.11058 1.11459L0.371716 4.69174C0.26238 4.79721 0.248669 4.9707 0.348161 5.08496C0.373145 5.1138 0.403736 5.13726 0.438073 5.1539C0.47241 5.17054 0.509774 5.18002 0.547891 5.18177C0.586008 5.18351 0.624081 5.17748 0.659794 5.16404C0.695506 5.1506 0.72811 5.13004 0.755622 5.1036L4.40308 1.6182C4.42926 1.59317 4.46408 1.5792 4.50029 1.5792C4.53651 1.5792 4.57133 1.59317 4.5975 1.6182L8.24531 5.1036C8.29905 5.15513 8.37102 5.18325 8.44546 5.1818C8.51989 5.18035 8.59072 5.14944 8.6424 5.09586C8.75033 4.98406 8.74137 4.79949 8.62904 4.69209Z" fill="#293737"/>
</g>
<defs>
<clipPath id="clip0_607_1105">
<rect width="9.00001" height="9.00001" fill="white" transform="translate(-0.000244141 0.400391)"/>
</clipPath>
</defs>
</svg>
