<svg width="10" height="10" viewBox="0 0 10 10" fill="none" xmlns="http://www.w3.org/2000/svg">
<g clip-path="url(#clip0_607_1130)">
<path d="M5.09803 1.8808C5.07186 1.85577 5.03704 1.8418 5.00082 1.8418C4.96461 1.8418 4.92979 1.85577 4.90362 1.8808L1.66748 4.97227C1.65374 4.98542 1.6428 5.00122 1.63534 5.01871C1.62788 5.0362 1.62404 5.05503 1.62406 5.07405L1.62354 7.97549C1.62354 8.12468 1.6828 8.26775 1.78829 8.37324C1.89378 8.47873 2.03685 8.53799 2.18604 8.53799H3.87529C3.94989 8.53799 4.02142 8.50836 4.07417 8.45562C4.12691 8.40287 4.15654 8.33134 4.15654 8.25674V5.86612C4.15654 5.82882 4.17136 5.79305 4.19773 5.76668C4.2241 5.74031 4.25987 5.72549 4.29717 5.72549H5.70342C5.74072 5.72549 5.77648 5.74031 5.80286 5.76668C5.82923 5.79305 5.84405 5.82882 5.84405 5.86612V8.25674C5.84405 8.33134 5.87368 8.40287 5.92642 8.45562C5.97917 8.50836 6.0507 8.53799 6.1253 8.53799H7.81385C7.96304 8.53799 8.10611 8.47873 8.2116 8.37324C8.31709 8.26775 8.37635 8.12468 8.37635 7.97549V5.07405C8.37637 5.05503 8.37254 5.0362 8.36507 5.01871C8.35761 5.00122 8.34668 4.98542 8.33293 4.97227L5.09803 1.8808Z" fill="#545E44"/>
<path d="M9.12929 4.39131L7.81444 3.13342V1.22461C7.81444 1.15002 7.78481 1.07848 7.73207 1.02574C7.67932 0.972991 7.60778 0.943359 7.53319 0.943359H6.68944C6.61485 0.943359 6.54331 0.972991 6.49057 1.02574C6.43782 1.07848 6.40819 1.15002 6.40819 1.22461V1.78711L5.39007 0.813633C5.29479 0.717305 5.15311 0.662109 5.00001 0.662109C4.84743 0.662109 4.7061 0.717305 4.61083 0.813809L0.87196 4.39096C0.762624 4.49643 0.748913 4.66992 0.848405 4.78418C0.873389 4.81302 0.90398 4.83648 0.938317 4.85312C0.972654 4.86976 1.01002 4.87924 1.04813 4.88099C1.08625 4.88273 1.12433 4.8767 1.16004 4.86326C1.19575 4.84982 1.22835 4.82925 1.25587 4.80281L4.90333 1.31742C4.9295 1.29239 4.96432 1.27842 5.00054 1.27842C5.03675 1.27842 5.07157 1.29239 5.09774 1.31742L8.74556 4.80281C8.79929 4.85434 8.87126 4.88247 8.9457 4.88102C9.02014 4.87957 9.09096 4.84866 9.14265 4.79508C9.25058 4.68328 9.24161 4.49871 9.12929 4.39131Z" fill="#293737"/>
</g>
<defs>
<clipPath id="clip0_607_1130">
<rect width="9.00001" height="9.00001" fill="white" transform="translate(0.500244 0.101562)"/>
</clipPath>
</defs>
</svg>
