<svg width="10" height="10" viewBox="0 0 10 10" fill="none" xmlns="http://www.w3.org/2000/svg">
<g clip-path="url(#clip0_607_1100)">
<path d="M5.3971 2.38276C5.37093 2.35772 5.33611 2.34375 5.29989 2.34375C5.26368 2.34375 5.22886 2.35772 5.20269 2.38276L1.96655 5.47422C1.95281 5.48737 1.94188 5.50317 1.93441 5.52066C1.92695 5.53816 1.92311 5.55698 1.92313 5.576L1.92261 8.47745C1.92261 8.62663 1.98187 8.76971 2.08736 8.87519C2.19285 8.98068 2.33592 9.03995 2.48511 9.03995H4.17437C4.24896 9.03995 4.3205 9.01032 4.37324 8.95757C4.42598 8.90483 4.45562 8.83329 4.45562 8.7587V6.36807C4.45562 6.33078 4.47043 6.29501 4.4968 6.26863C4.52318 6.24226 4.55895 6.22745 4.59624 6.22745H6.00249C6.03979 6.22745 6.07556 6.24226 6.10193 6.26863C6.1283 6.29501 6.14312 6.33078 6.14312 6.36807V8.7587C6.14312 8.83329 6.17275 8.90483 6.22549 8.95757C6.27824 9.01032 6.34978 9.03995 6.42437 9.03995H8.11292C8.26211 9.03995 8.40518 8.98068 8.51067 8.87519C8.61616 8.76971 8.67542 8.62663 8.67542 8.47745V5.576C8.67545 5.55698 8.67161 5.53816 8.66415 5.52066C8.65668 5.50317 8.64575 5.48737 8.63201 5.47422L5.3971 2.38276Z" fill="#545E44"/>
<path d="M9.42885 4.89131L8.114 3.63342V1.72461C8.114 1.65002 8.08437 1.57848 8.03163 1.52574C7.97888 1.47299 7.90735 1.44336 7.83275 1.44336H6.989C6.91441 1.44336 6.84287 1.47299 6.79013 1.52574C6.73738 1.57848 6.70775 1.65002 6.70775 1.72461V2.28711L5.68963 1.31363C5.59435 1.2173 5.45267 1.16211 5.29957 1.16211C5.14699 1.16211 5.00566 1.2173 4.91039 1.31381L1.17152 4.89096C1.06218 4.99643 1.04847 5.16992 1.14797 5.28418C1.17295 5.31302 1.20354 5.33648 1.23788 5.35312C1.27221 5.36976 1.30958 5.37924 1.3477 5.38099C1.38581 5.38273 1.42389 5.3767 1.4596 5.36326C1.49531 5.34982 1.52791 5.32925 1.55543 5.30281L5.20289 1.81742C5.22906 1.79239 5.26388 1.77842 5.3001 1.77842C5.33631 1.77842 5.37113 1.79239 5.3973 1.81742L9.04512 5.30281C9.09885 5.35434 9.17083 5.38247 9.24526 5.38102C9.3197 5.37957 9.39052 5.34866 9.44221 5.29508C9.55014 5.18328 9.54117 4.99871 9.42885 4.89131Z" fill="#293737"/>
</g>
<defs>
<clipPath id="clip0_607_1100">
<rect width="9.00001" height="9.00001" fill="white" transform="translate(0.799805 0.599609)"/>
</clipPath>
</defs>
</svg>
