<svg width="9" height="10" viewBox="0 0 9 10" fill="none" xmlns="http://www.w3.org/2000/svg">
<g clip-path="url(#clip0_607_1150)">
<path d="M4.59803 2.68159C4.57186 2.65655 4.53704 2.64258 4.50082 2.64258C4.46461 2.64258 4.42979 2.65655 4.40362 2.68159L1.16748 5.77305C1.15374 5.7862 1.1428 5.802 1.13534 5.81949C1.12788 5.83698 1.12404 5.85581 1.12406 5.87483L1.12354 8.77628C1.12354 8.92546 1.1828 9.06853 1.28829 9.17402C1.39378 9.27951 1.53685 9.33878 1.68604 9.33878H3.37529C3.44989 9.33878 3.52142 9.30914 3.57417 9.2564C3.62691 9.20366 3.65654 9.13212 3.65654 9.05753V6.6669C3.65654 6.6296 3.67136 6.59383 3.69773 6.56746C3.7241 6.54109 3.75987 6.52627 3.79717 6.52627H5.20342C5.24072 6.52627 5.27648 6.54109 5.30286 6.56746C5.32923 6.59383 5.34405 6.6296 5.34405 6.6669V9.05753C5.34405 9.13212 5.37368 9.20366 5.42642 9.2564C5.47917 9.30914 5.5507 9.33878 5.6253 9.33878H7.31385C7.46304 9.33878 7.60611 9.27951 7.7116 9.17402C7.81709 9.06853 7.87635 8.92546 7.87635 8.77628V5.87483C7.87637 5.85581 7.87254 5.83698 7.86507 5.81949C7.85761 5.802 7.84668 5.7862 7.83293 5.77305L4.59803 2.68159Z" fill="#545E44"/>
<path d="M8.62929 5.19209L7.31444 3.9342V2.02539C7.31444 1.9508 7.28481 1.87926 7.23207 1.82652C7.17932 1.77377 7.10778 1.74414 7.03319 1.74414H6.18944C6.11485 1.74414 6.04331 1.77377 5.99057 1.82652C5.93782 1.87926 5.90819 1.9508 5.90819 2.02539V2.58789L4.89007 1.61441C4.79479 1.51809 4.65311 1.46289 4.50001 1.46289C4.34743 1.46289 4.2061 1.51809 4.11083 1.61459L0.37196 5.19174C0.262624 5.29721 0.248913 5.4707 0.348405 5.58496C0.373389 5.6138 0.40398 5.63726 0.438317 5.6539C0.472654 5.67054 0.510018 5.68002 0.548135 5.68177C0.586252 5.68351 0.624326 5.67748 0.660038 5.66404C0.69575 5.6506 0.728354 5.63004 0.755866 5.6036L4.40333 2.1182C4.4295 2.09317 4.46432 2.0792 4.50054 2.0792C4.53675 2.0792 4.57157 2.09317 4.59774 2.1182L8.24556 5.6036C8.29929 5.65513 8.37126 5.68325 8.4457 5.6818C8.52014 5.68035 8.59096 5.64944 8.64265 5.59586C8.75058 5.48406 8.74161 5.29949 8.62929 5.19209Z" fill="#293737"/>
</g>
<defs>
<clipPath id="clip0_607_1150">
<rect width="9.00001" height="9.00001" fill="white" transform="translate(0.000244141 0.902344)"/>
</clipPath>
</defs>
</svg>
