<svg width="10" height="10" viewBox="0 0 10 10" fill="none" xmlns="http://www.w3.org/2000/svg">
<g clip-path="url(#clip0_607_1078)">
<path d="M5.09779 1.8769C5.07161 1.85186 5.03679 1.83789 5.00058 1.83789C4.96436 1.83789 4.92954 1.85186 4.90337 1.8769L1.66724 4.96836C1.65349 4.98151 1.64256 4.99731 1.6351 5.0148C1.62763 5.0323 1.6238 5.05112 1.62382 5.07014L1.62329 7.97159C1.62329 8.12077 1.68255 8.26385 1.78804 8.36934C1.89353 8.47482 2.03661 8.53409 2.18579 8.53409H3.87505C3.94964 8.53409 4.02118 8.50446 4.07392 8.45171C4.12667 8.39897 4.1563 8.32743 4.1563 8.25284V5.86221C4.1563 5.82492 4.17112 5.78915 4.19749 5.76277C4.22386 5.7364 4.25963 5.72159 4.29693 5.72159H5.70318C5.74047 5.72159 5.77624 5.7364 5.80261 5.76277C5.82899 5.78915 5.8438 5.82492 5.8438 5.86221V8.25284C5.8438 8.32743 5.87343 8.39897 5.92618 8.45171C5.97892 8.50446 6.05046 8.53409 6.12505 8.53409H7.81361C7.96279 8.53409 8.10587 8.47482 8.21135 8.36934C8.31684 8.26385 8.37611 8.12077 8.37611 7.97159V5.07014C8.37613 5.05112 8.37229 5.0323 8.36483 5.0148C8.35737 4.99731 8.34643 4.98151 8.33269 4.96836L5.09779 1.8769Z" fill="black"/>
<path d="M9.12929 4.39131L7.81444 3.13342V1.22461C7.81444 1.15002 7.78481 1.07848 7.73207 1.02574C7.67932 0.972991 7.60778 0.943359 7.53319 0.943359H6.68944C6.61485 0.943359 6.54331 0.972991 6.49057 1.02574C6.43782 1.07848 6.40819 1.15002 6.40819 1.22461V1.78711L5.39007 0.813633C5.29479 0.717305 5.15311 0.662109 5.00001 0.662109C4.84743 0.662109 4.7061 0.717305 4.61083 0.813809L0.87196 4.39096C0.762624 4.49643 0.748913 4.66992 0.848405 4.78418C0.873389 4.81302 0.90398 4.83648 0.938317 4.85312C0.972654 4.86976 1.01002 4.87924 1.04813 4.88099C1.08625 4.88273 1.12433 4.8767 1.16004 4.86326C1.19575 4.84982 1.22835 4.82925 1.25587 4.80281L4.90333 1.31742C4.9295 1.29239 4.96432 1.27842 5.00054 1.27842C5.03675 1.27842 5.07157 1.29239 5.09774 1.31742L8.74556 4.80281C8.79929 4.85434 8.87126 4.88247 8.9457 4.88102C9.02014 4.87957 9.09096 4.84866 9.14265 4.79508C9.25058 4.68328 9.24161 4.49871 9.12929 4.39131Z" fill="black"/>
</g>
<defs>
<clipPath id="clip0_607_1078">
<rect width="9.00001" height="9.00001" fill="white" transform="translate(0.500488 0.0996094)"/>
</clipPath>
</defs>
</svg>
